# xmcd
#
# Track frame offsets:
# 150
# 21277
# 42021
# 56867
# 75308
# 103314
# 118088
# 140595
# 160101
# 176102
# 193480
# 216019
# 234107
# 252213
# 272447
# 294330
# 310875
#
# Disc length: 4374 seconds
#
#
# Revision: 0
# Processed by: cddbd v1.5.1PL0 Copyright (c) Steve Scherf et al.
# Submitted via: FreeRIP 2.942 
#
DISCID=f1111411
DTITLE=Varius - Best of love
DYEAR=1900
DGENRE=blues
TTITLE0=Celine dion- My heart will go on
TTITLE1=Savage Garden - truly madly deeply
TTITLE2=Billy Joel - She's always a woman
TTITLE3=Tina Arena - If i was a river
TTITLE4=Michael Jackson - Earth song
TTITLE5=AZ Yet - Hard to say i'm sorry
TTITLE6=Ricky Martin - Corazonando
TTITLE7=Gloria Estefan - I'm not giving you up
TTITLE8=Backstreet Boys - As long as you love me
TTITLE9=Maraiah Carey - My all
TTITLE10=Michael Jackson - Said i loved you
TTITLE11=Elton John - Can you feel the love tonight
TTITLE12=Whitney Houston - I belive in you and me
TTITLE13=Toni Braxton - Un-break my hearth
TTITLE14=Des'ree - I'm kissing you
TTITLE15=K-Ci and Jojo - All my life
TTITLE16=Barbara Streisand - Woman in love
EXTD=
EXTT0=
EXTT1=
EXTT2=
EXTT3=
EXTT4=
EXTT5=
EXTT6=
EXTT7=
EXTT8=
EXTT9=
EXTT10=
EXTT11=
EXTT12=
EXTT13=
EXTT14=
EXTT15=
EXTT16=
PLAYORDER=
